<?xml version="1.0" encoding="UTF-8" standalone="no"?>
<svg
   xmlns:dc="http://purl.org/dc/elements/1.1/"
   xmlns:cc="http://creativecommons.org/ns#"
   xmlns:rdf="http://www.w3.org/1999/02/22-rdf-syntax-ns#"
   xmlns:svg="http://www.w3.org/2000/svg"
   xmlns="http://www.w3.org/2000/svg"
   width="237.1832mm"
   height="68.370361mm"
   viewBox="0 0 237.18319 68.370363"
   version="1.1"
   id="svg8">
  <defs
     id="defs2">
	

		
	
			
			
		
				
				
				
				
				
				
				
				
				
				
				
				
				
				
				
				
				
				
				
				
				
				
				
				
				
				
				
				
				
				
				
			
					
					
				
					
					
				
					
					
				</defs>
  <metadata
     id="metadata5">
    <rdf:RDF>
      <cc:Work
         rdf:about="">
        <dc:format>image/svg+xml</dc:format>
        <dc:type
           rdf:resource="http://purl.org/dc/dcmitype/StillImage" />
        <dc:title></dc:title>
      </cc:Work>
    </rdf:RDF>
  </metadata>
  <g
     id="layer1"
     transform="translate(209.95277,-288.42116)">
    <path
       id="Fill-5"
       style="fill:#000000;fill-opacity:1;stroke-width:0.374223"
       d="m -175.91012,288.42116 c -13.62173,0 -25.5216,7.70842 -31.92083,19.23451 v 6.39981 c 7.63416,-9.13105 19.08496,-14.93167 31.92083,-14.93167 12.83588,0 24.28741,5.80062 31.92157,14.93167 v -6.39981 c -6.43664,-11.48867 -18.29983,-19.23451 -31.92157,-19.23451 z m 77.101755,2.69412 c -3.517705,0 -6.361805,2.88138 -6.361805,6.39908 0,3.5177 2.8441,6.39908 6.361805,6.39908 3.517698,0 6.3618,-2.88138 6.3618,-6.39908 0,-3.55512 -2.844102,-6.39908 -6.3618,-6.39908 z m 15.979055,0 c -3.51771,0 -6.361801,2.88138 -6.361801,6.39908 0,3.5177 2.844091,6.39908 6.361801,6.39908 3.517698,0 6.3618,-2.88138 6.3618,-6.39908 0,-3.55512 -2.844102,-6.39908 -6.3618,-6.39908 z m 39.892821,0.823 v 4.37886 h 26.644423 l -1.534167,-4.37886 z m 45.0559315,0 -1.53417077,4.37886 H 27.230432 v -4.37886 z m -45.0559315,8.38276 v 4.41613 h 29.563663 l -1.534904,-4.41613 z m 42.13158,0 -1.5341707,4.41613 H 27.224583 v -4.41613 z m -90.032198,6.24924 c -5.538506,0 -10.291303,3.29331 -12.499213,8.00853 h 25.035702 c -2.207919,-4.71522 -6.997973,-8.00853 -12.536489,-8.00853 z m 56.656862,2.17079 v 4.37812 H -10.4916 l -1.496895,-4.37812 z m 30.4619455,0 -1.5341707,4.37812 H 18.473455 v -4.37812 z m -172.1801205,1.04811 c -15.30575,0 -28.44099,9.69195 -34.05435,23.50081 5.61336,13.80884 18.7486,23.50153 34.05435,23.50153 15.30575,0 28.44099,-9.69269 34.05434,-23.50153 -5.65076,-13.80886 -18.74859,-23.50081 -34.05434,-23.50081 z m 71.25232,2.65685 -21.6677,9.61725 c -4.37841,1.94596 -7.5965,5.46351 -7.55902,10.70265 0,6.17469 5.01417,11.18943 11.15142,11.18943 5.91274,0 9.39331,-4.07905 10.77794,-8.23292 z m 27.655265,0 7.29736,23.27641 c 1.384627,4.15387 4.901737,8.23292 10.814474,8.23292 6.137267,0 11.114882,-5.01474 11.114882,-11.18943 0,-5.23914 -3.181342,-8.75669 -7.559758,-10.70265 z m -98.907585,1.57144 c 10.59053,0 19.15995,8.60729 19.15995,19.23524 0,10.62795 -8.60685,19.23524 -19.15995,19.23524 -10.59053,0 -19.15996,-8.60729 -19.15996,-19.23524 0,-10.62795 8.56943,-19.23524 19.15996,-19.23524 z m 141.718175,3.10635 v 4.4154 h 13.173112 v -4.04118 l 1.421608,4.04118 H 3.8787349 l 1.421608,-4.04118 v 4.04118 H 18.473455 v -4.4154 H 5.3003429 -6.6368018 l -1.2352335,3.5924 -1.1972198,-3.5924 z m -70.465855,3.89207 v 7.44647 h 27.655265 v -7.44647 z m -71.25232,3.74224 c -4.67779,0 -8.49458,3.81664 -8.49458,8.53186 0,4.71521 3.77936,8.53259 8.49458,8.53259 4.67779,0 8.49458,-3.81738 8.49458,-8.53259 0,-4.71522 -3.81679,-8.56934 -8.49458,-8.53186 z m 141.718175,0.78572 v 4.4154 h 13.173112 v -4.4154 z m 15.979789,0 1.534167,4.4154 H 0.95949531 l 1.53417069,-4.4154 z m 23.5007989,0 v 4.4154 H 18.473455 v -4.4154 z m -39.4805879,8.42003 v 4.37813 h 13.173112 v -4.37813 z m 18.936301,0 1.534171,4.37813 h 11.7127561 l 1.53490418,-4.37813 z m 20.5442869,0 v 4.37813 H 18.473455 v -4.37813 z M -104.6461,334.89944 v 7.4472 h 27.655265 v -7.4472 z m 61.709611,7.4472 v 4.4154 h 21.929356 v -4.4154 z m 30.611047,0 1.534171,4.4154 h 5.8757517 l 1.534167,-4.4154 z m 17.6257849,0 v 4.4154 H 27.230432 v -4.4154 z m -108.6352029,6.42685 c 2.20791,4.71521 6.997983,8.00853 12.536488,8.00853 5.538521,0 10.291284,-3.29332 12.499214,-8.00853 z m 60.398371,1.99318 v 4.4154 h 21.929356 v -4.4154 z m 33.5675594,0 1.4968943,4.4154 1.5341708,-4.4154 z m 14.6692725,0 v 4.4154 H 27.230432 v -4.4154 z" />
  </g>
  <style
     type="text/css"
     id="style899">
	.st0{fill:#FFFFFF;}
	.st1{fill:#231F20;}
	.st2{fill:none;}
</style>
</svg>
