<svg version="1.2" xmlns="http://www.w3.org/2000/svg" viewBox="0 0 1541 1389" width="1541" height="1389">
	<title>astera-labs_BIG-svg-svg</title>
	<style>
		.s0 { fill: #ffffff } 
	</style>
	<path id="Path 16" class="s0" d="m1189.2 1252.5l59.8 102.1 11 22.5 5.6 11.5h-13.8-23-1157.4q-19.8 0-34-8.7-17-8.3-28.5-25.3-8.3-19.8-8.3-36.8 0-19.7 8.3-36.8l337-586.1 379.4-660.2 11-22.5 8.7-11.5 8.3 11.5 11.5 22.5 56.6 102.1q11.5 17 11.5 36.7 0 17-11.5 34.1l-577.6 1008.2h883.4q19.7 0 36.7 11.5 14.3 8.2 25.3 25.2zm-107.6-119h-568.8q-19.7 0-36.7-8.3-17.1-11.5-25.3-28.5-11.5-17-11.5-34 0-19.8 11.5-36.8l379.3-662.5q11.1-17 25.3-25.3 17-11.5 36.8-11.5 19.8 0 34 11.5 17 8.3 25.3 25.3l568.8 991.2 14.3 22.5 5.9 11.5h-14.2-22.5-119.1q-19.8 0-36.8-8.7-14.3-8.3-25.3-25.3l-430.4-753.5-45.5 76.8-161 283.2h294.3q19.8 0 36.8 8.2 17 11.5 25.3 28.5l59.3 102.1 11.5 19.8 8.7 13.8h-14.2z"/>
</svg>