<svg version="1.2" baseProfile="tiny-ps" xmlns="http://www.w3.org/2000/svg" viewBox="0 0 1571 1519" width="1571" height="1519">
	<title>Costco_Wholesale_logo_2010-10-26-svg (1)-svg</title>
	<style>
		tspan { white-space:pre }
		.shp0 { fill: #ffffff } 
		.shp1 { fill: #e31837 } 
	</style>
	<g id="#ffffffff">
		<path id="Layer" fill-rule="evenodd" class="shp0" d="M1014.22 2.34C1179.05 -6.6 1345.64 10.87 1504.5 56.03C1546.29 67.14 1576.81 111.23 1569.68 154.4C1542.61 318.6 1515.31 482.78 1488.16 646.98C1482.63 684.21 1451.62 716.43 1414.26 722.21C1390.29 726.31 1364.71 719.9 1345.64 704.79C1307.23 671.85 1265.14 642.33 1218.25 622.76C1149.64 592.71 1071.31 585.06 998.37 602.48C936.46 616.54 877.59 647.28 833.57 693.46C806.33 723.29 784.65 761.81 786.6 803.36C788.09 835.17 808.23 862.86 833.13 881.27C869.69 908.37 915.31 920.37 960.1 924.2C1027.2 928.21 1094.75 916.88 1157.86 894.12C1208.4 875.27 1256.22 849.59 1300.9 819.43C1322.06 805.48 1349.38 801.52 1373.68 808.78C1408.01 818.47 1434.45 850.72 1436.96 886.39C1439.21 907.02 1432.2 926.89 1427.85 946.76C1392.44 1096.07 1357.33 1245.44 1321.87 1394.73C1317.6 1413.85 1308.19 1432.1 1293.28 1445.06C1281.64 1455.9 1266.73 1462.18 1251.68 1466.55C1181.88 1487.57 1109.3 1497.26 1037.03 1505.16C976.63 1511.07 916.1 1516.03 855.47 1517.54C738.65 1522.36 620.42 1512.26 507.78 1479.9C402.54 1450.37 301.87 1401.61 217.46 1331.68C138.09 1266.3 74.15 1181.22 37.69 1084.76C15.68 1027.75 3.49 966.99 1.16 905.92C-2.09 846.07 5.59 786.11 18.24 727.66C43.77 621.44 93.98 521.88 160.18 435.25C235.43 336.46 330.24 253.41 435.23 187.51C608.81 78.81 809.99 15.3 1014.22 2.34ZM528.86 234.32C388.38 312.91 263.19 423.42 180.29 562.47C139.96 630.72 109.53 705.67 96.96 784.21C81.03 872.82 86.8 966.11 118.83 1050.59C141.2 1111.02 176.55 1166.27 220.16 1213.58C284.16 1282.4 365.43 1333.8 452.45 1368.42C566.25 1413.61 689.45 1432.13 811.53 1430.61C896.32 1429.73 981.01 1423.32 1065.23 1413.44C1122.45 1405.87 1180.04 1397.48 1235.06 1379.35C1273.64 1217.02 1311.8 1054.63 1350.32 892.3C1266.04 949.21 1170.9 992.47 1069.63 1006.81C1006.76 1015.75 941.55 1016.52 880.01 999.16C834.67 986.85 791.17 964.92 757.33 931.96C725.16 901.25 703.1 859.31 699.27 814.73C694.43 762.5 712.18 710.24 741.81 667.7C778.07 615.69 829.99 575.84 886.83 548.66C960.48 513.3 1044.07 499.04 1125.29 507.98C1228.27 518.5 1323.44 568.85 1400.67 636.14C1428.12 471.25 1455.28 306.3 1482.71 141.39C1351.69 103.55 1214.9 86.82 1078.65 87.92C887.08 90.31 696.11 140.73 528.86 234.32Z" />
	</g>
	<g id="#e31837ff">
		<path id="Layer" class="shp1" d="M528.86 234.32C696.11 140.73 887.08 90.31 1078.65 87.92C1214.9 86.82 1351.69 103.55 1482.71 141.39C1455.28 306.3 1428.12 471.25 1400.67 636.14C1323.44 568.85 1228.27 518.5 1125.29 507.98C1044.07 499.04 960.48 513.3 886.83 548.66C829.99 575.84 778.07 615.69 741.81 667.7C712.18 710.24 694.43 762.5 699.27 814.73C703.1 859.31 725.16 901.25 757.33 931.96C791.17 964.92 834.67 986.85 880.01 999.16C941.55 1016.52 1006.76 1015.75 1069.63 1006.81C1170.9 992.47 1266.04 949.21 1350.32 892.3C1311.8 1054.63 1273.64 1217.02 1235.06 1379.35C1180.04 1397.48 1122.45 1405.87 1065.23 1413.44C981.01 1423.32 896.32 1429.73 811.53 1430.61C689.45 1432.13 566.25 1413.61 452.45 1368.42C365.43 1333.8 284.16 1282.4 220.16 1213.58C176.55 1166.27 141.2 1111.02 118.83 1050.59C86.8 966.11 81.03 872.82 96.96 784.21C109.53 705.67 139.96 630.72 180.29 562.47C263.19 423.42 388.38 312.91 528.86 234.32Z" />
	</g>
</svg>