<svg width="280" height="60" viewBox="0 0 70 15" fill="none" xmlns="http://www.w3.org/2000/svg">
<g clip-path="url(#clip0_1_21714)">
<path d="M69.4065 6.51411V11.185H67.6931V6.82468C67.6931 5.76137 67.2351 5.16917 66.3473 5.16917C65.4594 5.16917 64.869 5.79032 64.7058 6.83872C64.661 7.08964 64.647 7.47303 64.647 8.28718V11.1841H62.9336V3.76458H64.4522C64.4557 3.83125 64.4926 4.49451 64.4952 4.53399C64.4979 4.58751 64.5601 4.6147 64.6023 4.58137C65.2339 4.08129 65.927 3.61719 66.8938 3.61719C68.4739 3.61719 69.4065 4.6963 69.4065 6.51411Z" fill="white"/>
<path d="M60.1613 3.76546L60.1052 4.61207C60.1017 4.66647 60.0368 4.69366 59.9964 4.65769C59.7902 4.45942 59.0208 3.61719 57.7215 3.61719C55.8589 3.61719 54.4851 5.22708 54.4842 7.41249H54.4824C54.4824 9.62861 55.8423 11.2403 57.7206 11.2403C58.9726 11.2403 59.7411 10.4287 59.8815 10.2471C59.9218 10.198 59.9999 10.2269 59.9982 10.2901C59.9824 10.5165 59.9481 11.0823 59.7613 11.5631C59.5253 12.1711 58.9901 12.7343 57.9128 12.7343C57.0267 12.7343 56.2441 12.3948 55.5036 11.671L54.6175 12.8984C55.4299 13.8161 56.7152 14.3337 58.1058 14.3337C60.3517 14.3337 61.6975 12.7957 61.6975 10.2831V3.76546H60.1613ZM58.0926 9.6909C56.9846 9.6909 56.2002 8.73111 56.2002 7.41512C56.2002 6.09914 56.9846 5.16742 58.0926 5.16742C59.2007 5.16742 59.9841 6.09826 59.9841 7.41512C59.9841 8.73199 59.1998 9.6909 58.0926 9.6909Z" fill="white"/>
<path d="M50.905 8.98202C50.905 10.3875 49.7215 11.3333 47.9923 11.3333C46.6324 11.3333 45.4235 10.8025 44.6962 10.0497L44.6979 10.048H44.6953L45.2594 8.70479C45.8043 9.19697 46.6842 9.90146 47.9353 9.90146C48.8082 9.90146 49.31 9.51719 49.31 9.02852C49.31 8.46616 48.6143 8.31789 47.787 8.15471C46.6044 7.90467 45.0383 7.50461 45.0383 5.89297C45.0383 4.54715 46.1324 3.61719 47.7431 3.61719C48.9837 3.61719 50.0496 4.09007 50.7866 4.71121L49.9426 5.89384C49.2328 5.33236 48.4801 5.05073 47.7396 5.05073C46.9992 5.05073 46.6324 5.36218 46.6324 5.80523C46.6324 6.42638 47.4317 6.58956 48.023 6.70712C49.5013 7.0019 50.905 7.44671 50.905 8.98202Z" fill="white"/>
<path d="M25.8198 3.61719C23.7221 3.61719 22.2148 5.24462 22.2148 7.47566C22.2148 9.70669 23.7212 11.3341 25.8198 11.3341C27.9183 11.3341 29.4264 9.70932 29.4264 7.47566C29.4264 5.24199 27.9174 3.61719 25.8198 3.61719ZM25.8198 9.78214C24.7126 9.78214 23.9283 8.83639 23.9283 7.47566C23.9283 6.11493 24.6968 5.16917 25.8198 5.16917C26.9427 5.16917 27.7113 6.11581 27.7113 7.47566C27.7113 8.83551 26.9278 9.78214 25.8198 9.78214Z" fill="white"/>
<path d="M30.0293 7.47566C30.0293 5.2727 31.5365 3.61719 33.5482 3.61719C35.145 3.61719 36.3127 4.41643 36.8584 5.92367L35.3362 6.50007C34.923 5.56923 34.3756 5.17005 33.5474 5.17005C32.513 5.17005 31.7445 6.14563 31.7445 7.47653C31.7445 8.80743 32.5121 9.78302 33.5474 9.78302C34.3756 9.78302 34.9213 9.38296 35.3362 8.453L36.8584 9.0294C36.3127 10.5366 35.145 11.3359 33.5482 11.3359C31.5392 11.3359 30.0293 9.68037 30.0293 7.47741V7.47303V7.47478V7.47566Z" fill="white"/>
<path d="M20.8619 0.320312C20.8303 0.320312 20.7987 0.328208 20.7697 0.343123L19.6494 0.933562C19.6275 0.944967 19.6143 0.967777 19.6143 0.992342V4.52708C19.6143 4.58586 19.5459 4.61306 19.502 4.57358C19.3379 4.42882 18.951 4.06824 18.4132 3.82083C18.1351 3.69274 17.7228 3.61729 17.3526 3.61729C15.476 3.61729 14.1152 5.24473 14.1152 7.47576C14.1152 9.7068 15.4751 11.3316 17.3526 11.3316C18.3404 11.3316 19.0783 10.8149 19.5292 10.3543C19.5599 10.3227 19.5766 10.3051 19.6038 10.2753C19.6433 10.2332 19.7143 10.2578 19.7178 10.3157L19.7766 11.1833H21.3286V0.365056C21.3286 0.340491 21.3084 0.320312 21.2838 0.320312H20.8619ZM17.7228 9.78137C16.5998 9.78137 15.8313 8.83562 15.8313 7.47489C15.8313 6.11416 16.6156 5.1684 17.7228 5.1684C18.83 5.1684 19.6143 6.11504 19.6143 7.47489C19.6143 8.83474 18.8466 9.78137 17.7228 9.78137Z" fill="white"/>
<path d="M52.9249 3.78844L51.8476 4.35694C51.8257 4.36835 51.8125 4.39116 51.8125 4.41572V11.1834H53.5268V3.81037C53.5268 3.7858 53.5066 3.76562 53.482 3.76562H53.0171C52.9846 3.76562 52.9539 3.77352 52.9249 3.78844Z" fill="white"/>
<path d="M52.6702 2.55526C53.2413 2.55526 53.7037 2.09291 53.7037 1.52177C53.7037 0.950631 53.2413 0.488281 52.6702 0.488281C52.0991 0.488281 51.6367 0.950631 51.6367 1.52177C51.6367 2.09291 52.0991 2.55526 52.6702 2.55526Z" fill="white"/>
<path d="M8.27843 8.28091V11.2173C8.27843 11.3726 8.15209 11.4989 7.99681 11.4989H0.281621C0.126335 11.4989 0 11.3726 0 11.2173V3.50037C0 3.34508 0.126335 3.21875 0.281621 3.21875H3.21627V8.00016C3.21627 8.15545 3.3426 8.28179 3.49789 8.28179H8.2793L8.27843 8.28091Z" fill="#4C00FF"/>
<path d="M11.497 4.13834C11.497 6.60976 10.0573 8.27404 8.27895 8.2793V5.16831C8.27895 5.07883 8.24298 4.99285 8.17982 4.92968L6.56642 3.31628C6.50325 3.25312 6.41727 3.21715 6.32779 3.21715H3.2168V0.281621C3.2168 0.126335 3.34313 0 3.49842 0H7.8517C9.91341 0 11.497 1.66253 11.497 4.13834Z" fill="#FF5252"/>
<path d="M8.17874 4.93216C8.24191 4.99533 8.27788 5.08131 8.27788 5.1708V8.28179H3.49646C3.34118 8.28179 3.21484 8.15545 3.21484 8.00016V3.21875H6.32583C6.41532 3.21875 6.5013 3.25472 6.56447 3.31789L8.17874 4.93216Z" fill="white"/>
<path d="M44.0741 3.76172V7.79214C44.0741 10.847 42.3624 11.3313 40.8359 11.3313C39.3093 11.3313 37.5977 10.847 37.5977 7.79214V3.76172H39.3093V8.22096C39.3093 8.65699 39.419 9.78016 40.8359 9.78016C42.2527 9.78016 42.3624 8.65699 42.3624 8.22096V3.76172H44.0741Z" fill="white"/>
</g>
<defs>
<clipPath id="clip0_1_21714">
<rect width="69.406" height="14.332" fill="white"/>
</clipPath>
</defs>
</svg>
