<svg xmlns="http://www.w3.org/2000/svg" width="200" height="60" viewBox="0 0 520 160">
  <!-- FedEx Wordmark -->
  <!-- "Fed" in purple -->
  <!-- F -->
  <path fill="#4D148C" d="M20,20 L20,140 L52,140 L52,92 L100,92 L100,68 L52,68 L52,44 L108,44 L108,20 Z"/>
  <!-- e -->
  <path fill="#4D148C" d="M120,58 C120,58 120,56 120,55 C124,38 140,26 160,26 C182,26 198,42 198,64 L198,76 L148,76 C150,90 160,98 174,98 C184,98 192,92 196,84 L198,84 C194,104 180,114 162,114 C140,114 120,96 120,72 Z M148,60 L170,60 C168,48 164,40 158,40 C152,40 148,48 148,60 Z"/>
  <!-- d -->
  <path fill="#4D148C" d="M210,8 L240,8 L240,38 C246,30 256,26 266,26 C288,26 304,44 304,70 C304,96 288,114 266,114 C256,114 246,110 240,102 L240,112 L210,112 Z M240,70 C240,88 250,98 262,98 C274,98 282,88 282,70 C282,52 274,42 262,42 C250,42 240,52 240,70 Z"/>
  <!-- "Ex" in orange -->
  <!-- E -->
  <path fill="#FF6600" d="M316,20 L316,140 L396,140 L396,116 L348,116 L348,92 L390,92 L390,68 L348,68 L348,44 L396,44 L396,20 Z"/>
  <!-- x -->
  <path fill="#FF6600" d="M400,28 L428,70 L398,112 L432,112 L446,88 L460,112 L494,112 L464,70 L492,28 L458,28 L446,50 L434,28 Z"/>
</svg>
