<svg version="1.2" xmlns="http://www.w3.org/2000/svg" viewBox="0 0 790 1579" width="790" height="1579">
	<title>image-fabrinet-svg</title>
	<style>
		.s0 { fill: #ffffff } 
	</style>
	<g id="#ffffffff">
		<path id="Layer" class="s0" d="m181.4 165.5c24.2-75.3 84.1-143.1 163.3-160.8 34.2-4.7 68.8-3.4 103.2-3.8 113.7 0.3 227.4-0.8 341.2 0.6-2 78.3 4.6 157.1-3.9 235.1-72.2-0.2-144.3-0.1-216.5-0.3-20.2 1.1-44.2-1.7-59.8 14.1-19.8 20.2-34.3 47.3-34.3 76.3-2 48.2-2.9 96.7 0.6 145 104.5-0.7 209-0.6 313.4 0 0.6 77.8 1 155.7-0.1 233.6-104.4 0.3-208.7 0.2-313.1 0.1-4.4 291.1 1.1 582.3-2.7 873.5-104.4-0.9-208.8 0-313.2-0.5-2-288.6-0.4-577.3-0.7-865.8-51.9-11.4-105.1-6.3-157.6-7-0.5-78-0.4-155.9-0.1-233.9 52.4-0.9 104.7 0.1 157.1-1 5.3-101.6-13.1-207.5 23.2-305.2z"/>
	</g>
</svg>