<svg version="1.2" baseProfile="tiny-ps" xmlns="http://www.w3.org/2000/svg" viewBox="0 0 1272 1817" width="1272" height="1817">
	<title>Group__1_-svg</title>
	<style>
		tspan { white-space:pre }
		.shp0 { fill: #ffffff } 
	</style>
	<path id="Layer" fill-rule="evenodd" class="shp0" d="M1127.95 610.84C1127.95 871.12 929.98 1098.48 645.03 1167.29C639.03 1167.29 633.03 1167.29 627.03 1167.29C342.08 1098.48 144.12 868.13 144.12 610.84C144.12 380.49 309.09 183.04 507.05 183.04C543.05 183.04 576.04 189.02 612.04 200.99C627.03 206.97 645.03 206.97 660.03 200.99C696.02 189.02 732.02 183.04 765.01 183.04C959.97 183.04 1127.95 377.49 1127.95 610.84ZM974.97 494.17C959.97 467.24 929.98 449.29 896.98 446.3C845.99 443.31 804 458.27 771.01 491.18C723.02 536.05 705.02 610.84 699.02 643.75C696.02 664.69 651.03 844.19 624.03 963.86C597.04 844.19 555.04 664.69 549.05 643.75C540.05 613.83 525.05 539.05 477.06 491.18C444.07 458.27 399.07 443.31 351.08 446.3C321.09 449.29 291.09 467.24 273.1 494.17C255.1 521.09 255.1 556.99 267.1 586.91C285.09 619.82 309.09 646.75 339.08 667.68C369.08 682.64 399.07 694.61 432.07 694.61C447.06 694.61 459.06 685.63 459.06 670.68C459.06 655.72 450.06 643.75 435.07 643.75C411.07 640.76 390.07 634.78 369.08 622.81C348.08 607.85 330.09 586.91 318.09 562.98C312.09 548.02 312.09 533.06 321.09 518.1C330.08 503.14 345.08 494.17 360.08 494.17C396.07 491.18 426.07 503.14 447.06 524.09C483.06 559.98 498.06 625.8 504.05 652.73C507.05 673.67 558.04 880.09 585.04 996.77L594.04 1035.66C600.04 1050.62 612.04 1062.58 630.03 1062.58C648.03 1062.58 663.02 1050.62 666.03 1035.66C690.02 930.95 750.01 676.66 756.01 652.73C762.01 625.8 777.01 559.98 813 524.09C837 503.14 863.99 491.18 899.98 494.17C914.98 497.16 929.98 503.14 938.98 518.1C947.98 530.07 947.98 548.02 941.98 562.98C929.98 589.9 914.98 607.85 890.99 622.81C869.99 634.78 849 643.75 825 643.75C813 643.75 801 655.72 801 670.68C801 682.64 813 694.61 828 694.61C860.99 694.61 893.99 685.63 920.98 667.68C953.97 649.74 977.97 622.81 992.97 586.91C1004.96 556.99 1004.96 521.09 974.97 494.17Z" />
	<path id="Layer" fill-rule="evenodd" class="shp0" d="M1271.87 634.77L1271.87 1182.24C1271.87 1532.26 986.92 1816.47 635.98 1816.47C285.04 1816.47 0.09 1532.26 0.09 1182.24L0.09 634.77C0.09 284.74 285.04 0.54 635.98 0.54C986.92 0.54 1271.87 284.74 1271.87 634.77ZM174.06 1271.99C174.06 1257.03 162.06 1245.06 147.07 1245.06C132.07 1245.06 120.07 1257.03 120.07 1271.99L120.07 1307.89C120.07 1322.85 132.07 1334.81 147.07 1334.81C162.06 1334.81 174.06 1322.85 174.06 1307.89L174.06 1271.99ZM1175.89 610.83C1175.89 350.56 986.92 132.17 761.96 132.17C722.96 132.17 680.97 141.15 641.98 153.11C638.98 156.1 632.98 156.1 626.98 153.11C587.99 138.15 546 132.17 507 132.17C282.04 132.17 93.08 350.56 93.08 610.83C93.08 895.04 309.04 1143.35 614.98 1215.15C620.99 1218.14 629.98 1218.14 635.98 1218.14C641.98 1218.14 650.98 1218.14 656.98 1215.15C962.93 1143.35 1178.89 895.04 1175.89 610.83ZM336.03 1514.31C336.03 1499.36 324.04 1487.39 309.04 1487.39C294.04 1487.39 282.04 1499.36 282.04 1514.31L282.04 1550.21C282.04 1565.17 294.04 1577.14 309.04 1577.14C324.04 1577.14 336.03 1565.17 336.03 1550.21L336.03 1514.31ZM336.03 1352.76C336.03 1337.81 324.04 1325.84 309.04 1325.84C294.04 1325.84 282.04 1337.81 282.04 1352.76L282.04 1388.67C282.04 1403.62 294.04 1415.59 309.04 1415.59C324.04 1415.59 336.03 1403.62 336.03 1388.67L336.03 1352.76ZM498.01 1595.09C498.01 1580.13 486.01 1568.16 471.01 1568.16C456.01 1568.16 444.01 1580.13 444.01 1595.09L444.01 1630.99C444.01 1645.94 456.01 1657.91 471.01 1657.91C486.01 1657.91 498.01 1645.94 498.01 1630.99L498.01 1595.09ZM498.01 1433.54C498.01 1418.58 486.01 1406.61 471.01 1406.61C456.01 1406.61 444.01 1418.58 444.01 1433.54L444.01 1469.44C444.01 1484.4 456.01 1496.37 471.01 1496.37C486.01 1496.37 498.01 1484.4 498.01 1469.44L498.01 1433.54ZM659.98 1514.31C659.98 1499.36 647.98 1487.39 632.98 1487.39C617.98 1487.39 605.99 1499.36 605.99 1514.31L605.99 1550.21C605.99 1565.17 617.98 1577.14 632.98 1577.14C647.98 1577.14 659.98 1565.17 659.98 1550.21L659.98 1514.31ZM659.98 1352.76C659.98 1337.81 647.98 1325.84 632.98 1325.84C617.98 1325.84 605.99 1337.81 605.99 1352.76L605.99 1388.67C605.99 1403.62 617.98 1415.59 632.98 1415.59C647.98 1415.59 659.98 1403.62 659.98 1388.67L659.98 1352.76ZM824.95 1595.09C824.95 1580.13 812.95 1568.16 797.95 1568.16C782.96 1568.16 770.96 1580.13 770.96 1595.09L770.96 1630.99C770.96 1645.94 782.96 1657.91 797.95 1657.91C812.95 1657.91 824.95 1645.94 824.95 1630.99L824.95 1595.09ZM824.95 1433.54C824.95 1418.58 812.95 1406.61 797.95 1406.61C782.96 1406.61 770.96 1418.58 770.96 1433.54L770.96 1469.44C770.96 1484.4 782.96 1496.37 797.95 1496.37C812.95 1496.37 824.95 1484.4 824.95 1469.44L824.95 1433.54ZM986.92 1514.31C986.92 1499.36 974.92 1487.39 959.92 1487.39C944.93 1487.39 932.93 1499.36 932.93 1514.31L932.93 1550.21C932.93 1565.17 944.93 1577.14 959.92 1577.14C974.92 1577.14 986.92 1565.17 986.92 1550.21L986.92 1514.31ZM986.92 1352.76C986.92 1337.81 974.92 1325.84 959.92 1325.84C944.93 1325.84 932.93 1337.81 932.93 1352.76L932.93 1388.67C932.93 1403.62 944.93 1415.59 959.92 1415.59C974.92 1415.59 986.92 1403.62 986.92 1388.67L986.92 1352.76ZM1148.89 1271.99C1148.89 1257.03 1136.89 1245.06 1121.9 1245.06C1106.9 1245.06 1094.9 1257.03 1094.9 1271.99L1094.9 1307.89C1094.9 1322.85 1106.9 1334.81 1121.9 1334.81C1136.89 1334.81 1148.89 1322.85 1148.89 1307.89L1148.89 1271.99ZM1148.89 1110.44C1148.89 1095.48 1136.89 1083.52 1121.9 1083.52C1106.9 1083.52 1094.9 1095.48 1094.9 1110.44L1094.9 1146.34C1094.9 1161.3 1106.9 1173.26 1121.9 1173.26C1136.89 1173.26 1148.89 1161.3 1148.89 1146.34L1148.89 1110.44ZM174.06 1110.44C174.06 1095.48 162.06 1083.52 147.07 1083.52C132.07 1083.52 120.07 1095.48 120.07 1110.44L120.07 1146.34C120.07 1161.3 132.07 1173.26 147.07 1173.26C162.06 1173.26 174.06 1161.3 174.06 1146.34L174.06 1110.44Z" />
</svg>