<svg version="1.2" xmlns="http://www.w3.org/2000/svg" viewBox="0 0 1568 1150" width="1568" height="1150">
	<title>LLY-7d9e05a0-svg</title>
	<style>
		.s0 { fill: #ffffff } 
	</style>
	<g id="#d52b1eff">
		<path id="Layer" fill-rule="evenodd" class="s0" d="m1458.3 0h7.4c29.2 0.5 60 9.9 79.4 32.8 16.7 18.7 22.8 44.5 22.7 69-0.6 30-7.4 59.8-18 87.8-12.9 35.2-31 68.2-51.8 99.3-34.7 52.3-76.7 99.6-122.5 142.6-103.5 98.4-224.2 180.2-357.6 232.2-51.4 20.5-104.9 35.6-159.2 46.4-37.3 51.2-75.3 101.9-116.4 150.1-45.2 53.8-94.5 104.3-149 148.8 33.9 18 69.7 33.7 107.8 39.7 33.4 5.3 68 5.4 100.9-2.9 59.9-13.9 113.6-46.3 162.6-82.6 59.3-44.2 111.8-96.5 163.7-149 24.2 18.8 48.1 37.8 72.3 56.6-9.4 12.2-17.9 25.2-29 36-12.3 12.9-24.1 26.3-36.6 39-26.5 23.3-52.3 47.4-80 69.4-7 5.7-13.9 11.7-21 17.5-10.1 8.2-22.1 13.8-32.4 21.9-28.2 19-58.4 34.9-88.9 49.7-57.6 26.9-120.3 45.4-184.3 45.2-38.5 0.8-77-4.9-113.9-15.4-42.6-12.8-82.8-32.9-119.9-57.4-36.1 19.6-74 36-113.5 47.6-32.8 9.5-66.2 17.6-100.4 20.9-31.3 4.1-63.1 4.9-94.7 4.2-39.6-2.7-79.4-11.5-114.6-30.4-18.6-10.5-36.1-23.6-48.5-41.2-14.9-19.9-22.3-44.7-22.9-69.4v-13.9c2.1-24.3 11.7-47.7 27-66.6 20.8-25.7 49.6-44.1 80.5-55.3 33.3-13.4 69.3-18 104.9-19.3 69.3-0.9 138.3 15.6 201.1 44.6 29.3 13 57.1 29.1 83.2 47.6 76.7-62.5 141.7-137.6 202.7-215.1-87.9 4.4-178.1-2.5-260.6-35.1-44.5-17.1-86.6-42.3-119.1-77.6-13.8-13.5-24.9-29.6-33.9-46.6-21.8-40.7-27.5-88.7-21-134 8-53.1 33.9-102 67.7-143 48.6-58.9 112.5-103.4 180.4-137.3 72.4-35.3 150.6-59.2 230.7-67.7 13.5 30.4 28.4 60.1 41.8 90.4-68.3 8.3-135.8 26-198.6 54.5-41.5 18.9-81.1 42.5-116.4 71.4-26.3 22.4-50.3 48-68 77.9-15.1 26.3-25.6 56.5-23.5 87.3 1.3 33.9 19.2 65.3 43.5 88.2 35.8 33.8 83 52.5 130.5 63.3 23.4 4.9 47.2 8.9 71.1 10.2 51.4 4.7 103.1 0.1 154.1-6.4 10.2-16 22-30.9 32.9-46.4 41.2-56.4 82.6-112.7 125.6-167.8 75-95.9 153.8-189.6 244.7-271.1 49.7-43.7 103-84.4 163.4-112.2 35.6-16.6 74.2-27.1 113.6-28.4zm-87.6 135c-29.1 16.8-55.6 37.7-81.2 59.5-80.6 69.6-152.5 148.7-220.2 230.9-41.9 51.4-82.5 103.9-121.1 157.9 35.6-11.8 70.5-26.1 103.7-43.6 35.6-17.6 69.3-38.9 102-61.3 78.9-54.7 150.2-120.6 209.9-195.8 20-25.5 38.7-52.1 54.3-80.6 9.4-17.9 18.5-36.4 21.9-56.5 1.1-7.1 2.4-15.1-2-21.4-4.1-6.5-12.7-7.8-19.8-7.1-17 2.2-32.7 9.7-47.5 18zm-1206.5 817.3c-17 4.9-34.8 11.8-46.3 26-10.6 11.8-12.7 30.4-4.3 44 4.8 6.9 11.1 12.8 18.5 16.6 17.5 9.8 37.6 14 57.4 15.6 34 2.2 68.3-0.3 101.6-7.6 37.3-7.9 73-21.8 107.3-38.2-4.2-3.1-8.4-6.2-12.9-8.9-28-16.4-57.6-30.5-88.8-39.5-42.6-13.1-88.7-18.1-132.5-8z"/>
	</g>
</svg>