<svg xmlns="http://www.w3.org/2000/svg" viewBox="0 0 64 64" width="64" height="64">
  <rect width="64" height="64" rx="12" fill="#0668E1"/>
  <g transform="translate(8,18) scale(0.12)">
    <path d="M307.8 199.2c0 0-42.4-84.4-80-84.4-24.8 0-48 22-67.6 60.8C143 210 133.4 253 133.4 295.2c0 40 10 73.2 28 97.6 16.4 22 37.2 33.2 60 33.2 28.4 0 52-20 72.4-60.4 0 0 10-20.4 14-28.4 4-8 8.4-17.2 14-28.4 20.4-40.4 44-60.4 72.4-60.4 22.8 0 43.6 11.2 60 33.2 18 24.4 28 57.6 28 97.6 0 42.2-9.6 85.2-26.8 119.6-19.6 38.8-42.8 60.8-67.6 60.8-37.6 0-80-84.4-80-84.4" fill="none" stroke="white" stroke-width="44" stroke-linecap="round" stroke-linejoin="round"/>
  </g>
</svg>
