<svg xmlns="http://www.w3.org/2000/svg" viewBox="0 0 64 64" width="64" height="64">
  <rect width="64" height="64" rx="12" fill="#0668E1"/>
  <g transform="translate(9,20) scale(0.085)">
    <path d="M115.2 288.8c0-30.4 5.6-55.2 15.2-73.6 12.8-24.8 32-38.4 52.8-38.4 14.4 0 28 6.4 41.6 19.2 14.4 13.6 30.4 36.8 48.8 70.4l5.6 10.4c15.2 28 26.4 47.2 34.4 57.6 10.4 13.6 21.6 20 33.6 20 16.8 0 30.4-12 40-35.2 8-19.2 12-43.2 12-72 0-44-10.4-79.2-31.2-105.6-22.4-28-52.8-42.4-91.2-42.4-40.8 0-75.2 16-103.2 48C144 176 128 219.2 128 272c0 52 16 95.2 47.2 128 30.4 32 68 48 112.8 48 28 0 52.8-6.4 74.4-18.4 21.6-12.8 40-31.2 55.2-55.2l-20-12.8c-12.8 20-28.8 35.2-47.2 45.6-18.4 9.6-38.4 14.4-60 14.4-36 0-65.6-14.4-89.6-43.2-24-28.8-36-65.6-36-110.4zm142.4-48c-16-30.4-30.4-51.2-42.4-63.2-10.4-10.4-21.6-15.2-33.6-15.2-14.4 0-26.4 9.6-36 28-8 16-12.8 36.8-13.6 62.4h1.6c6.4-4.8 13.6-7.2 21.6-7.2 12 0 24 5.6 36 16.8 8 7.2 20 22.4 36.8 45.6l6.4 8.8c12 16.8 22.4 28.8 30.4 36 10.4 8.8 21.6 13.6 33.6 13.6 16 0 29.6-8 40.8-24 12-17.6 17.6-39.2 17.6-64.8 0-13.6-1.6-26.4-4.8-38.4l-19.2 5.6c2.4 9.6 3.6 20 3.6 31.2 0 20.8-4 37.6-12.8 50.4-7.2 10.4-16 16-26.4 16-9.6 0-18.4-5.6-27.2-16-7.2-8.8-17.6-24.8-31.2-48z" fill="white"/>
  </g>
</svg>