<svg version="1.2" xmlns="http://www.w3.org/2000/svg" viewBox="0 0 1556 1556" width="1556" height="1556">
	<title>MRVL_BIG copy-svg-svg-svg</title>
	<style>
		.s0 { fill: #ffffff } 
	</style>
	<path id="Layer" fill-rule="evenodd" class="s0" d="m599.5 589.5c0-5.1 2.7-7.8 8.4-7.8h340.8c6.1 0 8.8 2.4 8.8 7.8 0 3-2.3 6.7-6.1 10.8l-162.6 166.4c-3.7 3.7-7.4 5.7-10.8 5.7-3 0-6.8-2-10.8-5.7l-162.6-166.4c-3.8-4.1-5.8-7.8-5.1-10.8zm956.5 957.7c0 5.7-2.7 8.4-8.2 8.4q-4.7 0-9.8-4.7l-133.2-136.3v-1274.6l133.2-134.9q5.1-5.1 9.8-5.1c5.5 0 8.2 2.7 8.2 8.8zm-1555.6-1538.3c0-6.1 2.7-8.8 8.1-8.8 2.7 0 6.4 1.6 9.5 5l133.5 135v1274.6l-133.5 136.2q-4.8 4.8-9.5 4.8c-5.4 0-8.1-2.7-8.1-8.5zm225.2 207.3q-4.8-4.7-4.8-9.8c0-5.4 2.7-8.1 8.5-8.1h1097.4c6.1 0 8.8 2.7 8.8 8.1q0 5.1-4.7 9.8l-121.1 123.1h-862.8zm121.7 1000.4h862.2l121 123q4.8 5.1 4.8 9.9c0 5-2.7 7.7-8.8 7.7h-1096.8c-6.1 0-8.8-2.3-8.8-7.7q0-4.8 4.7-9.9zm671.1-193.7v-488.7l126.5-128.8q4.7-4.8 9.5-4.8c5 0 7.7 2.7 7.7 8.8v737.6c0 6.1-2.3 8.8-7.7 8.8q-4.8 0-9.5-4.8zm-606.2 127.9q-4.7 4.7-9.8 4.7c-4.7 0-7.5-2.7-7.5-8.4v-738c0-5.4 2.1-8.4 7.5-8.4q5.1 0 9.8 4.7l126.4 128.5v488.4z"/>
</svg>