<svg xmlns="http://www.w3.org/2000/svg" width="64" height="64" viewBox="0 0 64 64">
  <rect width="64" height="64" rx="14" fill="#0B3D91"/>
  <g transform="translate(4,12)">
    <svg viewBox="0 0 1551 817" width="56" height="40">
      <path fill="#ffffff" d="m0 663.4h238.5c71.2 0 104.1-28.3 104.1-109.2v-169.1c0-252.4 118.4-384.3 344.1-384.3 118 0 207.6 42.2 260.8 123 55.6-80.8 141-123 259-123 225.7 0 344.1 131.9 344.1 384.3v431.8h-168v-431.8c0-155.6-62.3-230.8-176.1-230.8-113.4 0-175.7 75.2-175.7 230.8v431.8h-168.3v-431.8c0-155.6-62.4-230.8-175.8-230.8-113.7 0-176.1 75.2-176.1 230.8v169.1c0 189-90.7 262.7-272.1 262.7h-238.5z"/>
    </svg>
  </g>
</svg>