<svg xmlns="http://www.w3.org/2000/svg" viewBox="0 0 111 30" width="111" height="30">
  <title>Netflix</title>
  <path fill="#E50914" d="M10.749 28.653l-.01-14.9L.002 0h5.347l6.38 8.85L18.1 0h5.324l-10.73 13.71 10.774 14.943h-5.305l-6.44-8.94-6.464 8.94H10.749zm19.93-.027l-.003-28.64h6.236v23.132h9.38v5.508H30.68zm23.495-17.51L44.35 28.651H38.53V0h5.822l-.002 17.478L54.176 0h5.82v28.626h-5.82V11.116zm12.082 17.51V0h15.598v5.486h-9.774v6.208h7.463v5.443h-7.463v11.489h-5.824zm19.57-.012V0h5.823v28.62l-5.823.003zM100.456 0l2.63 6.015L105.91 0h6.354l-5.85 13.3 6.436 15.326h-6.394l-3.374-8.237-3.578 8.237h-6.343l6.587-15.01L93.88 0h6.575z"/>
</svg>
