<svg xmlns="http://www.w3.org/2000/svg" viewBox="0 0 272 180">
<path fill="#76B900" d="M101.3,53.6V37.4c1.6-0.1,3.2-0.2,4.8-0.2c44.4-1.4,73.5,38.2,73.5,38.2S148.2,119,114.5,119
	c-4.5,0-8.9-0.7-13.1-2.1V67.7c17.3,2.1,20.8,9.7,31.1,27l23.1-19.4c0,0-16.9-22.1-45.3-22.1C107.3,53.1,104.3,53.3,101.3,53.6
	 M101.3,0v24.2c1.6-0.1,3.2-0.2,4.8-0.3c61.7-2.1,102,50.6,102,50.6s-46.2,56.2-94.3,56.2c-4.2,0-8.3-0.4-12.4-1.1v15
	c3.4,0.4,6.9,0.7,10.3,0.7c44.8,0,77.2-22.9,108.6-49.9c5.2,4.2,26.5,14.3,30.9,18.7c-29.8,25-99.3,45.1-138.7,45.1
	c-3.8,0-7.4-0.2-11-0.6v21.1h170.2V0L101.3,0z M101.3,116.9v12.8c-41.4-7.4-52.9-50.5-52.9-50.5s19.9-22,52.9-25.6v14h-0.1
	c-17.3-2.1-30.9,14.1-30.9,14.1S78,109,101.3,116.9 M27.8,77.4c0,0,24.5-36.2,73.6-40V24.2C47,28.6,0,74.6,0,74.6s26.6,77,101.3,84
	v-14C46.5,137.8,27.8,77.4,27.8,77.4z"/>
</svg>
