<svg version="1.2" xmlns="http://www.w3.org/2000/svg" viewBox="0 0 1509 962" width="1509" height="962">
	<title>ORCL</title>
	<style>
		.s0 { fill: #ffffff } 
	</style>
	<path fill-rule="evenodd" class="s0" d="m481 962c-129.7 3.4-255.2-45.9-348.2-136.4-92.8-90.6-145.2-215-145.2-344.8 0-129.8 52.4-254.1 145.2-344.8 93-90.5 218.5-139.8 348.2-136.4h558.9c125.4 3.3 244.5 55.4 332 145.3 87.5 89.9 136.5 210.4 136.5 335.9 0 125.5-49 246.1-136.5 335.9-87.5 89.9-206.6 142-332 145.3zm546.4-169.4c84.2 2.7 166-28.9 226.6-87.6 60.6-58.7 94.8-139.5 94.8-223.8 0-84.4-34.2-165.2-94.8-223.9-60.6-58.7-142.4-90.3-226.6-87.6h-534.1c-80.8 2.6-157.4 36.6-213.6 94.7-56.3 58.1-87.7 135.8-87.7 216.8 0 80.9 31.4 158.6 87.7 216.7 56.2 58.1 132.8 92.1 213.6 94.7z"/>
</svg>