<svg width="16" height="48" xmlns="http://www.w3.org/2000/svg" viewBox="340 0 170 510">
	<style>.s0 { fill: #ffffff }</style>
	<path class="s0" d="m389.69 240.52h-6.23c-20.13 0-32.63 12.62-32.63 32.93v198.88c0 20.31 12.5 32.93 32.63 32.93h6.23c20.13 0 32.63-12.62 32.63-32.93v-198.88c0-20.31-12.5-32.93-32.63-32.93z"/>
	<path class="s0" d="m476.02 117.4c-45.48-7.3-81.38-43.21-88.68-88.7-0.14-0.86-1.25-0.86-1.39 0-7.31 45.49-43.2 81.4-88.69 88.7-0.86 0.14-0.86 1.26 0 1.39 45.49 7.31 81.38 43.21 88.69 88.71 0.14 0.86 1.25 0.86 1.39 0 7.3-45.5 43.2-81.4 88.68-88.71 0.86-0.13 0.86-1.25 0-1.39zm-44.69 1.05c-22.74 3.65-40.69 21.6-44.34 44.35-0.07 0.43-0.63 0.43-0.69 0-3.66-22.75-21.6-40.7-44.35-44.35-0.43-0.07-0.43-0.63 0-0.7 22.75-3.65 40.69-21.6 44.35-44.35 0.06-0.43 0.62-0.43 0.69 0 3.65 22.75 21.6 40.7 44.34 44.35 0.43 0.07 0.43 0.63 0 0.7z"/>
	<path class="s0" d="m503.27 46.37c-22.74 3.65-40.69 21.61-44.34 44.35-0.07 0.43-0.62 0.43-0.69 0-3.66-22.74-21.6-40.7-44.35-44.35-0.43-0.07-0.43-0.63 0-0.69 22.75-3.66 40.69-21.61 44.35-44.36 0.07-0.43 0.62-0.43 0.69 0 3.65 22.75 21.6 40.7 44.34 44.36 0.43 0.06 0.43 0.62 0 0.69z"/>
</svg>
