<svg version="1.2" xmlns="http://www.w3.org/2000/svg" viewBox="0 0 1549 506" width="1549" height="506">
	<title>PATH_BIG</title>
	<style>
		.s0 { fill: #ffffff } 
	</style>
	<g id="uipath-promo-logo-digital-rgb-ob1">
		<g id="uipath-corporate-logo">
			<path id="path1" class="s0" d="m267.87 145.07h-7.52c-19.64 0-31.84 12.15-31.84 31.71v157.28c0 74.57-22.79 104.99-78.65 104.99-55.87 0-78.66-30.55-78.66-105.46v-156.81c0-19.56-12.2-31.71-31.84-31.71h-7.52c-19.64 0-31.84 12.15-31.84 31.71v157.28c0 113.6 50.42 171.2 149.86 171.2 99.43 0 149.85-57.6 149.85-171.2v-157.28c0-19.56-12.2-31.71-31.84-31.71z"/>
			<g id="g3">
				<path id="original" class="s0" d="m389.69 240.52h-6.23c-20.13 0-32.63 12.62-32.63 32.93v198.88c0 20.31 12.5 32.93 32.63 32.93h6.23c20.13 0 32.63-12.62 32.63-32.93v-198.88c0-20.31-12.5-32.93-32.63-32.93z"/>
				<path id="path2" class="s0" d="m476.02 117.4c-45.48-7.3-81.38-43.21-88.68-88.7-0.14-0.86-1.25-0.86-1.39 0-7.31 45.49-43.2 81.4-88.69 88.7-0.86 0.14-0.86 1.26 0 1.39 45.49 7.31 81.38 43.21 88.69 88.71 0.14 0.86 1.25 0.86 1.39 0 7.3-45.5 43.2-81.4 88.68-88.71 0.86-0.13 0.86-1.25 0-1.39zm-44.69 1.05c-22.74 3.65-40.69 21.6-44.34 44.35-0.07 0.43-0.63 0.43-0.69 0-3.66-22.75-21.6-40.7-44.35-44.35-0.43-0.07-0.43-0.63 0-0.7 22.75-3.65 40.69-21.6 44.35-44.35 0.06-0.43 0.62-0.43 0.69 0 3.65 22.75 21.6 40.7 44.34 44.35 0.43 0.07 0.43 0.63 0 0.7z"/>
				<path id="path3" class="s0" d="m503.27 46.37c-22.74 3.65-40.69 21.61-44.34 44.35-0.07 0.43-0.62 0.43-0.69 0-3.66-22.74-21.6-40.7-44.35-44.35-0.43-0.07-0.43-0.63 0-0.69 22.75-3.66 40.69-21.61 44.35-44.36 0.07-0.43 0.62-0.43 0.69 0 3.65 22.75 21.6 40.7 44.34 44.36 0.43 0.06 0.43 0.62 0 0.69z"/>
			</g>
			<path id="path4" class="s0" d="m578.61 145.07h-69.38c-19.85 0-32.18 12.28-32.18 32.04v296.11c0 19.76 12.33 32.04 32.18 32.04h7.6c19.85 0 32.18-12.28 32.18-32.04v-70.09h30.07c120.41 0 169.52-37.38 169.52-129.03 0-91.64-49.25-129.03-169.99-129.03zm97.08 128.09c0 47.14-22.46 63.05-89 63.05h-37.68v-125.64h37.68c66.54 0 89 15.79 89 62.59z"/>
			<path id="path5" class="s0" d="m1015.85 211.72h-5.71c-19.84 0-32.17 12.28-32.17 32.04v0.04c-20.39-23.5-51.96-37.28-88.05-37.28-36.77 0-70.02 13.45-93.62 37.87-25.72 26.6-39.3 65-39.3 111.03 0 46.23 13.66 84.84 39.53 111.66 23.73 24.62 57.07 38.18 93.86 38.18 35.41 0 67.22-13.95 87.6-37.12 0 0.03 0 6.68 0 6.71 0.67 18.8 12.86 30.41 32.15 30.41h5.71c19.85 0 32.18-12.28 32.18-32.04v-229.46c0-19.76-12.33-32.04-32.18-32.04zm-36.46 143.7c0 54.06-29 87.65-75.69 87.65-47.28 0-76.64-33.59-76.64-87.65 0-53.79 29-87.19 75.69-87.19 46.56 0 76.64 34.22 76.64 87.19z"/>
			<path id="path6" class="s0" d="m1259.38 469.02c-0.99-9.53-6.72-23.14-34-23.14-32.26 0-47.61-10.01-47.61-66.89v-109.49h48.08c19.83 0 32.15-11.2 32.15-29.22 0-17.73-12.32-28.74-32.15-28.74h-48.02v-34.41c0-19.77-12.42-32.06-32.4-32.06h-5.74c-19.98 0-32.39 12.29-32.39 32.06v34.41h-11.05c-17.49 0-28.35 11.01-28.35 28.74 0 18.02 12.32 29.22 32.14 29.22h7.26v115.65c0 84.19 32.9 120.11 110.01 120.11q0.19 0 0.37-0.01c4.49 0 9.29-0.07 14.18-0.51 9.72-0.91 17.07-4.33 21.85-10.15 4.77-5.79 6.67-15.98 5.67-25.57z"/>
			<path id="path7" class="s0" d="m1430.13 206.8c-37.26 0-63.84 14.78-80.49 33.4v-63.07c0-19.77-12.34-32.06-32.2-32.06h-5.71c-19.86 0-32.2 12.29-32.2 32.06v296.07c0 19.77 12.34 32.06 32.2 32.06h5.71c19.86 0 32.2-12.29 32.2-32.06v-118.83c0-76.07 36.44-84.87 63.85-84.87 46.03 0 64.8 22.81 64.8 78.72v124.98c0 19.77 12.34 32.06 32.2 32.06h5.71c19.86 0 32.2-12.29 32.2-32.06v-129.24c0-92.3-38.69-137.16-118.27-137.16z"/>
		</g>
	</g>
</svg>