<svg version="1.2" xmlns="http://www.w3.org/2000/svg" viewBox="0 0 1430 1429" width="1430" height="1429">
	<title>Reddit_logo_2023-svg</title>
	<defs>
		<radialGradient id="g1" cx="0" cy="0" r="1" gradientUnits="userSpaceOnUse" gradientTransform="matrix(337.324,0,0,337.324,1123.238,608.353)">
			<stop offset="0" stop-color="#feffff"/>
			<stop offset=".4" stop-color="#feffff"/>
			<stop offset=".51" stop-color="#f9fcfc"/>
			<stop offset=".62" stop-color="#edf3f5"/>
			<stop offset=".7" stop-color="#dee9ec"/>
			<stop offset=".72" stop-color="#d8e4e8"/>
			<stop offset=".76" stop-color="#ccd8df"/>
			<stop offset=".8" stop-color="#c8d5dd"/>
			<stop offset=".83" stop-color="#ccd6de"/>
			<stop offset=".85" stop-color="#d8dbe2"/>
			<stop offset=".88" stop-color="#ede3e9"/>
			<stop offset=".9" stop-color="#ffebef"/>
		</radialGradient>
		<radialGradient id="g2" cx="0" cy="0" r="1" gradientUnits="userSpaceOnUse" gradientTransform="matrix(337.324,0,0,337.324,313.053,208.727)">
			<stop offset="0" stop-color="#feffff"/>
			<stop offset=".4" stop-color="#feffff"/>
			<stop offset=".51" stop-color="#f9fcfc"/>
			<stop offset=".62" stop-color="#edf3f5"/>
			<stop offset=".7" stop-color="#dee9ec"/>
			<stop offset=".72" stop-color="#d8e4e8"/>
			<stop offset=".76" stop-color="#ccd8df"/>
			<stop offset=".8" stop-color="#c8d5dd"/>
			<stop offset=".83" stop-color="#ccd6de"/>
			<stop offset=".85" stop-color="#d8dbe2"/>
			<stop offset=".88" stop-color="#ede3e9"/>
			<stop offset=".9" stop-color="#ffebef"/>
		</radialGradient>
		<radialGradient id="g3" cx="0" cy="0" r="1" gradientUnits="userSpaceOnUse" gradientTransform="matrix(1017.502,0,0,1017.502,725.305,565.728)">
			<stop offset="0" stop-color="#feffff"/>
			<stop offset=".4" stop-color="#feffff"/>
			<stop offset=".51" stop-color="#f9fcfc"/>
			<stop offset=".62" stop-color="#edf3f5"/>
			<stop offset=".7" stop-color="#dee9ec"/>
			<stop offset=".72" stop-color="#d8e4e8"/>
			<stop offset=".76" stop-color="#ccd8df"/>
			<stop offset=".8" stop-color="#c8d5dd"/>
			<stop offset=".83" stop-color="#ccd6de"/>
			<stop offset=".85" stop-color="#d8dbe2"/>
			<stop offset=".88" stop-color="#ede3e9"/>
			<stop offset=".9" stop-color="#ffebef"/>
		</radialGradient>
		<radialGradient id="g4" cx="0" cy="0" r="1" gradientUnits="userSpaceOnUse" gradientTransform="matrix(85.012,0,0,85.012,499.17,846.645)">
			<stop offset="0" stop-color="#ff6600"/>
			<stop offset=".5" stop-color="#ff4500"/>
			<stop offset=".7" stop-color="#fc4301"/>
			<stop offset=".82" stop-color="#f43f07"/>
			<stop offset=".92" stop-color="#e53812"/>
			<stop offset="1" stop-color="#d4301f"/>
		</radialGradient>
		<radialGradient id="g5" cx="0" cy="0" r="1" gradientUnits="userSpaceOnUse" gradientTransform="matrix(-85.012,0,0,-85.012,930.902,846.645)">
			<stop offset="0" stop-color="#ff6600"/>
			<stop offset=".5" stop-color="#ff4500"/>
			<stop offset=".7" stop-color="#fc4301"/>
			<stop offset=".82" stop-color="#f43f07"/>
			<stop offset=".92" stop-color="#e53812"/>
			<stop offset="1" stop-color="#d4301f"/>
		</radialGradient>
		<radialGradient id="g6" cx="0" cy="0" r="1" gradientUnits="userSpaceOnUse" gradientTransform="matrix(299.767,0,0,299.767,714.162,1107.973)">
			<stop offset="0" stop-color="#172e35"/>
			<stop offset=".29" stop-color="#0e1c21"/>
			<stop offset=".73" stop-color="#030708"/>
			<stop offset="1" stop-color="#000000"/>
		</radialGradient>
		<radialGradient id="g7" cx="0" cy="0" r="1" gradientUnits="userSpaceOnUse" gradientTransform="matrix(263.136,0,0,263.136,978.516,217.884)">
			<stop offset="0" stop-color="#feffff"/>
			<stop offset=".4" stop-color="#feffff"/>
			<stop offset=".51" stop-color="#f9fcfc"/>
			<stop offset=".62" stop-color="#edf3f5"/>
			<stop offset=".7" stop-color="#dee9ec"/>
			<stop offset=".72" stop-color="#d8e4e8"/>
			<stop offset=".76" stop-color="#ccd8df"/>
			<stop offset=".8" stop-color="#c8d5dd"/>
			<stop offset=".83" stop-color="#ccd6de"/>
			<stop offset=".85" stop-color="#d8dbe2"/>
			<stop offset=".88" stop-color="#ede3e9"/>
			<stop offset=".9" stop-color="#ffebef"/>
		</radialGradient>
		<radialGradient id="g8" cx="0" cy="0" r="1" gradientUnits="userSpaceOnUse" gradientTransform="matrix(215.681,0,0,215.681,868.863,483.465)">
			<stop offset=".48" stop-color="#7a9299"/>
			<stop offset=".67" stop-color="#172e35"/>
			<stop offset=".75" stop-color="#000000"/>
			<stop offset=".82" stop-color="#172e35"/>
		</radialGradient>
	</defs>
	<style>
		.s0 { fill: #ff4500 } 
		.s1 { fill: url(#g1) } 
		.s2 { fill: url(#g2) } 
		.s3 { fill: url(#g3) } 
		.s4 { fill: #842123 } 
		.s5 { fill: url(#g4) } 
		.s6 { fill: url(#g5) } 
		.s7 { fill: #ffc49c } 
		.s8 { fill: #bbcfda } 
		.s9 { fill: #ffffff } 
		.s10 { fill: url(#g6) } 
		.s11 { fill: url(#g7) } 
		.s12 { fill: url(#g8) } 
		.s13 { fill: #ff6101 } 
	</style>
	<path id="Layer" class="s0" d="m714.6 0c-394.7 0-714.6 319.9-714.6 714.5 0 197.3 80 375.9 209.3 505.2l-136.1 136.1c-27 27-7.9 73.2 30.3 73.2h611.1c394.7 0 714.6-319.9 714.6-714.5 0-394.6-319.9-714.5-714.6-714.5z"/>
	<g id="Snoo">
		<g id="Layer">
			<path id="Layer" class="s1" d="m1119.7 874.5c-92.3 0-166.9-74.5-166.9-166.8 0-92.3 74.6-166.9 166.9-166.9 92.3 0 166.9 74.6 166.9 166.9 0 92.3-74.6 166.8-166.9 166.8z"/>
			<path id="Layer" class="s2" d="m309.5 874.5c-92.2 0-166.8-74.5-166.8-166.8 0-92.3 74.6-166.9 166.8-166.9 92.3 0 166.9 74.6 166.9 166.9 0 92.3-74.6 166.8-166.9 166.8z"/>
			<path id="Layer" class="s3" d="m715 1208.3c-263.4 0-476.4-159.7-476.4-357.3 0-197.5 213-357.2 476.4-357.2 263.5 0 476.4 159.7 476.4 357.2 0 197.6-212.9 357.3-476.4 357.3z"/>
			<g id="Layer">
				<path id="Layer" class="s4" d="m574.2 816.3c-2.8 60.5-43 82.5-89.8 82.5-46.8 0-82.4-31-79.6-91.5 2.8-60.6 42.9-100.6 89.7-100.6 46.8 0 82.5 49 79.7 109.6z"/>
				<path id="Layer" class="s4" d="m1025.3 807.3c2.8 60.5-32.9 91.5-79.7 91.5-46.7 0-86.9-22-89.7-82.5-2.8-60.5 32.9-109.6 79.6-109.6 46.8 0 87 40 89.8 100.6z"/>
			</g>
			<path id="Layer" class="s5" d="m574.2 821.6c-2.6 56.6-40.2 77.2-84 77.2-43.8 0-77.1-30.8-74.5-87.4 2.6-56.7 40.2-93.7 84-93.7 43.7 0 77.1 47.2 74.5 103.9z"/>
			<path id="Layer" class="s6" d="m855.9 821.6c2.6 56.6 40.2 77.2 83.9 77.2 43.8 0 77.2-30.8 74.6-87.4-2.6-56.7-40.2-93.7-84-93.7-43.8 0-77.2 47.2-74.5 103.9z"/>
			<path id="Layer" class="s7" d="m526.9 790.1c-10.2 0-18.5-9.1-18.5-20.3 0-11.1 8.3-20.2 18.5-20.2 10.3 0 18.6 9.1 18.6 20.2 0 11.2-8.3 20.3-18.6 20.3z"/>
			<path id="Layer" class="s7" d="m967.5 790.1c-10.3 0-18.5-9.1-18.5-20.3 0-11.1 8.2-20.2 18.5-20.2 10.2 0 18.5 9.1 18.5 20.2 0 11.2-8.3 20.3-18.5 20.3z"/>
			<path id="Layer" class="s8" d="m715 939.2c-59 0-115.7 2.8-168 8-8.9 0.9-14.6 10-11.1 18.2 29.3 68.7 98.5 116.9 179.1 116.9 80.7 0 149.9-48.2 179.2-116.9 3.5-8.2-2.2-17.3-11.1-18.2-52.4-5.2-109-8-168.1-8z"/>
			<path id="Layer" class="s9" d="m715 952.3c-58.9 0-115.3 2.9-167.5 8.2-8.9 0.9-14.6 10.1-11.1 18.4 29.3 69.8 98.2 118.8 178.6 118.8 80.5 0 149.4-49 178.7-118.8 3.4-8.3-2.2-17.5-11.2-18.4-52.1-5.3-108.6-8.2-167.5-8.2z"/>
			<path id="Layer" class="s10" d="m715 945.5c-57.9 0-113.5 2.8-164.9 8-8.7 0.9-14.3 10-10.9 18.2 28.8 68.7 96.7 116.9 175.9 116.9 79.2 0 147-48.2 175.8-116.9 3.4-8.2-2.1-17.3-10.9-18.2-51.4-5.2-106.9-8-165-8z"/>
			<path id="Layer" class="s11" d="m975.9 445.2c-65.3 0-118.2-52.9-118.2-118.2 0-65.4 52.9-118.3 118.2-118.3 65.4 0 118.3 52.9 118.3 118.3 0 65.3-52.9 118.2-118.3 118.2z"/>
			<path id="Layer" class="s12" d="m713.3 508.8c-14.1 0-25.6-5.9-25.6-15 0-105.9 86.2-192.1 192.1-192.1 14.2 0 25.7 11.5 25.7 25.6 0 14.2-11.5 25.7-25.7 25.7-77.6 0-140.8 63.1-140.8 140.8 0 9.1-11.5 15.1-25.7 15.1z"/>
			<path id="Layer" class="s13" d="m543.1 849.6c0 21.9-23.3 31.8-52.1 31.8-28.8 0-52.1-9.9-52.1-31.8 0-21.9 23.3-39.7 52.1-39.7 28.8 0 52.1 17.8 52.1 39.7z"/>
			<path id="Layer" class="s13" d="m991.2 849.6c0 21.9-23.3 31.8-52.1 31.8-28.8 0-52.1-9.9-52.1-31.8 0-21.9 23.3-39.7 52.1-39.7 28.8 0 52.1 17.8 52.1 39.7z"/>
		</g>
	</g>
</svg>