<svg version="1.2" baseProfile="tiny-ps" xmlns="http://www.w3.org/2000/svg" viewBox="0 0 1514 1472" width="1514" height="1472">
	<title>ic-logo-svg copy-svg</title>
	<style>
		tspan { white-space:pre }
		.shp0 { fill: #cc0000 } 
	</style>
	<path id="Layer" fill-rule="evenodd" class="shp0" d="M1510.25 630.84L1510.25 924.39C1468.65 934.58 1343.64 966.28 1229.03 1050C1145.76 1112.78 1072.75 1207.04 1072.75 1301.3C1072.75 1364.29 1083.22 1406.11 1104.02 1448.01C1104.02 1448.01 1066.66 1474.26 989.48 1468.96C895.38 1462.3 791.6 1385.02 729.13 1269.88C645.78 1123.18 604.19 945.05 510.44 945.05C416.56 945.05 416.56 1040.31 343.69 1039.46C248.54 1038.61 220.03 912 187.48 840.17C140.15 736 10.4 714.63 0 567.99L419.75 567.99L419.75 2.34L770.65 2.34L770.65 280.81L865.46 280.81L828.53 465.02L727.22 465.02L693.33 634.87L794.78 634.87L745.47 887.16C741.79 906.98 736.55 927.57 732.17 948.02C704.65 1081.78 810.7 1082.91 941.16 1082.91L1079.11 1082.91L1115.2 902.17C1036.24 902.17 1011.69 905 1020.39 848.59C1021.67 839.96 1023.79 830.97 1026.62 818.45L1063.13 634.66L1168.54 634.66L1202.29 464.88L1096.94 464.88L1133.87 280.67L1426.98 280.67L1426.98 463.18C1426.98 586.25 1510.25 630.84 1510.25 630.84ZM807.09 901.67L930.19 280.39L1072.18 280.39L948.94 901.67L807.09 901.67ZM1083.01 221.01L941.01 221.01L968.18 83.93L1110.31 83.93L1083.01 221.01Z" />
</svg>