<svg version="1.2" xmlns="http://www.w3.org/2000/svg" viewBox="0 0 1592 1590" width="1592" height="1590">
	<title>header-logo (1)-svg</title>
	<defs>
		<clipPath clipPathUnits="userSpaceOnUse" id="cp1">
			<path d="m1 0h1590v1590h-1590z"/>
		</clipPath>
	</defs>
	<style>
		.s0 { fill: #004c97 } 
	</style>
	<g id="Clip-Path" clip-path="url(#cp1)">
		<path id="Layer" fill-rule="evenodd" class="s0" d="m1539.3 512.8c11.4 30 21 60.6 28.7 91.8 7.6 31.1 13.4 62.7 17.3 94.5 3.8 31.8 5.7 63.8 5.7 95.9 0 439.1-355.9 795-795 795-439.1 0-795-355.9-795-795 0-30.1 1.6-60.3 5-90.2 3.4-30 8.5-59.7 15.3-89.1 6.8-29.3 15.3-58.3 25.4-86.7 10.1-28.4 21.8-56.2 35-83.3 68.8 14.8 102.2 35 125.5 89.5l359.4 889.5h117l191.7-468.3 391.8-0.2 62.9-153.5h-391.9l156-381.2h-63c-175.5 0-179.4 74.8-213.8 157.4l-167.7 429.5-22.1 62.8-19.2-60.2-189.8-536.9c-9.6-30.7-37.8-52.6-84.1-52.6h-240.2c133.7-250.8 397.8-421.5 701.8-421.5 304 0 568.1 170.8 701.8 421.5h-316.3l-62 153.7 319-0.2 61.3-149.7c14.9 28.3 28.1 57.6 39.5 87.5z"/>
	</g>
</svg>